<?xml version="1.0" encoding="UTF-8"?>
<svg version="1.1" xmlns="http://www.w3.org/2000/svg" width="2000" height="1538">
<path d="M0 0 C23.27810757 20.77751537 42.71020092 45.18510981 52.82861328 75.06738281 C53.1636084 76.04489502 53.49860352 77.02240723 53.84375 78.02954102 C54.49073076 79.94845234 55.11489666 81.87526398 55.71191406 83.81030273 C58.28340246 91.49357736 62.39260174 95.75547533 69.27783203 99.92285156 C76.1034038 101.38547408 81.88701538 101.06799719 88.11376953 97.84863281 C92.85234541 94.23779661 94.83724064 89.65703924 96.71533203 84.17285156 C114.03375253 36.11160731 145.73478975 -2.89308164 192.27783203 -25.32714844 C236.36333829 -45.79753829 286.7978644 -47.85610878 332.54467773 -31.44677734 C378.52304271 -14.05849548 414.20563813 21.2954757 434.90283203 65.48535156 C444.92294166 88.25747307 449.34531424 112.63813521 449.27783203 137.42285156 C449.2770163 138.56163254 449.2770163 138.56163254 449.27618408 139.72341919 C449.11559178 188.82034029 428.80095471 232.62631606 395.02783203 267.67285156 C375.99192945 286.22298948 352.48706437 299.70793451 327.57470703 308.68457031 C320.64252284 311.25425928 316.42238033 313.83577019 312.90283203 320.48535156 C310.63746188 327.28146201 311.18117192 334.25142405 314.34423828 340.63378906 C319.25388973 346.46630732 325.67646402 348.75469638 332.65283203 351.17285156 C378.14866727 367.80578053 412.4860143 401.77411815 433.65283203 444.86035156 C440.62094565 460.41745895 445.28869653 476.65128439 447.90283203 493.48535156 C448.05751953 494.46797974 448.05751953 494.46797974 448.21533203 495.47045898 C449.27159927 503.35945489 449.14666078 511.35262981 449.15283203 519.29785156 C449.15384415 520.46828003 449.15384415 520.46828003 449.15487671 521.66235352 C449.13817075 533.83678044 448.57726994 545.56620309 445.90283203 557.48535156 C445.65339844 558.64164063 445.65339844 558.64164063 445.39892578 559.82128906 C435.35071529 605.22431427 407.0861149 645.63428549 368.21533203 671.04785156 C338.1193636 690.10592829 305.37846892 699.96715006 269.71533203 699.79785156 C268.89790527 699.79569641 268.08047852 699.79354126 267.23828125 699.7913208 C255.23643904 699.74054016 243.60131218 699.40800216 231.90283203 696.48535156 C231.08572754 696.2866748 230.26862305 696.08799805 229.42675781 695.88330078 C180.70059783 683.7313442 140.03829092 654.47076127 113.90283203 611.48535156 C107.13291319 600.15936118 102.15886485 588.59140636 98.12133789 576.02490234 C95.57776002 568.37154013 92.73408943 562.81415508 85.71533203 558.54785156 C78.77063854 556.61244518 72.51056226 556.26764749 65.96533203 559.61035156 C59.05841269 563.56085122 57.0006933 570.53906174 54.71533203 577.67285156 C48.99705863 594.61721187 41.21973895 609.8838075 30.90283203 624.48535156 C30.28166504 625.3711792 30.28166504 625.3711792 29.64794922 626.27490234 C1.89423731 665.22105843 -41.08223078 689.82778701 -87.6862793 698.11572266 C-93.93574403 699.07386844 -99.98861739 699.64920497 -106.30419922 699.68847656 C-107.06290817 699.69553619 -107.82161713 699.70259583 -108.60331726 699.70986938 C-140.27834358 699.93773126 -140.27834358 699.93773126 -154.09716797 696.48535156 C-154.91427246 696.2866748 -155.73137695 696.08799805 -156.57324219 695.88330078 C-186.92862736 688.31288434 -213.98698269 674.90673064 -236.93701172 653.48925781 C-238.95613226 651.61618577 -241.0387986 649.86598315 -243.15966797 648.11035156 C-248.12311961 643.78605667 -252.03230954 638.63607727 -256.09716797 633.48535156 C-256.77908203 632.669375 -257.46099609 631.85339844 -258.16357422 631.01269531 C-263.51402793 624.57330385 -267.93129165 617.73727798 -272.09716797 610.48535156 C-272.45955566 609.86305664 -272.82194336 609.24076172 -273.1953125 608.59960938 C-296.23957864 568.63486819 -302.41008563 519.29855949 -290.84716797 474.67285156 C-289.99101446 471.58992089 -289.06524694 468.53486547 -288.09716797 465.48535156 C-287.73413574 464.33655518 -287.73413574 464.33655518 -287.36376953 463.16455078 C-279.49596045 438.90800426 -266.6009619 417.01076771 -249.09716797 398.48535156 C-247.9465277 397.13526698 -246.80049837 395.78123567 -245.65966797 394.42285156 C-226.1670134 372.22780625 -198.73759063 357.99359842 -171.36669922 348.00488281 C-166.64318282 345.80960458 -163.18967242 343.14294453 -160.28466797 338.73535156 C-157.91292933 332.24427739 -157.25525585 326.28252589 -159.88354492 319.75073242 C-163.84097088 312.36369652 -171.21211908 309.22711208 -178.78466797 306.73535156 C-201.63096897 298.57422169 -221.54246944 286.16668201 -239.09716797 269.48535156 C-240.50788641 268.27007901 -241.92410516 267.06114552 -243.34716797 265.86035156 C-247.33504852 262.37297424 -250.75195411 258.58771259 -254.09716797 254.48535156 C-255.22251953 253.11636719 -255.22251953 253.11636719 -256.37060547 251.71972656 C-286.92985556 213.35196146 -300.44190517 165.25125283 -295.47216797 116.48535156 C-291.73919521 85.46910811 -279.88191791 55.45155487 -261.09716797 30.48535156 C-260.46423828 29.64101563 -259.83130859 28.79667969 -259.17919922 27.92675781 C-230.44916974 -9.09647605 -188.10472919 -34.88199051 -141.32373047 -40.86962891 C-90.58887269 -46.65292147 -39.11758085 -33.82805751 0 0 Z M172.90283203 40.48535156 C172.23896484 41.08476562 171.57509766 41.68417969 170.89111328 42.30175781 C146.34523761 65.35396965 133.25702204 100.34333304 131.90283203 133.48535156 C131.26028279 171.39575668 145.5265747 206.60504708 171.45068359 234.078125 C194.79457327 258.04987616 228.31850398 273.87570345 261.91845703 274.78613281 C264.32984158 274.80539754 266.74139609 274.80895379 269.15283203 274.79785156 C270.42408936 274.79293701 271.69534668 274.78802246 273.00512695 274.78295898 C304.55810563 274.39088412 335.20931565 262.31242416 358.90283203 241.48535156 C359.75490234 240.76605469 360.60697266 240.04675781 361.48486328 239.30566406 C386.42102449 217.77859402 401.81585901 185.90438006 405.90283203 153.48535156 C406.66124869 137.62065406 407.19694759 120.88318604 402.90283203 105.48535156 C402.68771973 104.69612305 402.47260742 103.90689453 402.25097656 103.09375 C392.20508767 67.42504741 369.32574219 36.71296389 336.92822266 18.3671875 C281.91316517 -11.58424804 218.23963106 -2.22546592 172.90283203 40.48535156 Z M60.38330078 180.66113281 C57.52971329 184.1772947 56.35473942 188.24536115 54.90283203 192.48535156 C45.06974357 219.31869786 31.72970558 242.69408073 11.90283203 263.48535156 C11.13583984 264.31679688 10.36884766 265.14824219 9.57861328 266.00488281 C-8.15965815 284.64663156 -31.6936838 298.32919516 -55.86669922 306.84082031 C-63.49581276 309.53498727 -69.18105673 312.14792053 -73.17919922 319.46582031 C-75.74350548 325.51945655 -75.92527882 330.885846 -73.53466797 337.04785156 C-70.82286576 343.61643913 -65.1543082 347.22597946 -58.83154297 349.90722656 C-56.84064061 350.69319237 -54.84562793 351.4688059 -52.84716797 352.23535156 C-31.51815859 360.80589759 -12.08876904 371.47088388 4.68017578 387.37988281 C6.4545134 389.06067012 8.23460708 390.60281707 10.15283203 392.11035156 C31.81680469 410.82014613 46.10752545 439.22776414 54.97558594 465.89819336 C57.26109819 472.53692021 59.91979929 478.43383107 66.46533203 481.86035156 C71.7857882 484.24399639 77.19685747 484.36851048 82.90283203 483.48535156 C89.14420597 481.06900416 94.16325067 476.3682021 96.90649414 470.24511719 C97.877371 467.61205578 98.77410509 464.96305245 99.65283203 462.29785156 C109.01523175 435.38291362 123.21019399 412.99266365 142.90283203 392.48535156 C143.43561768 391.92847656 143.96840332 391.37160156 144.51733398 390.79785156 C163.00045234 371.84241294 187.69710855 358.01231514 212.63964844 349.56225586 C219.61778375 347.1212732 223.58929916 343.51344645 226.94970703 337.04785156 C229.14829822 331.13688508 228.8667696 324.96255239 226.40283203 319.17285156 C221.37972756 310.93963602 212.68279043 307.91890611 204.02783203 304.73535156 C160.63577712 288.0346294 125.24784104 254.91760428 105.90283203 212.48535156 C102.70675403 204.85631896 99.77697707 197.08585262 97.15185547 189.24121094 C94.90575821 182.729645 91.67410384 179.14454649 85.90283203 175.48535156 C76.47674029 171.84222128 67.69019778 173.75552993 60.38330078 180.66113281 Z M-152.09716797 387.48535156 C-152.76409668 387.66727051 -153.43102539 387.84918945 -154.11816406 388.03662109 C-187.64676761 397.3858629 -217.76387728 421.41561278 -235.01123047 451.46972656 C-251.89525184 481.97162438 -257.62034951 516.23928148 -250.09716797 550.48535156 C-249.94683105 551.17725586 -249.79649414 551.86916016 -249.64160156 552.58203125 C-244.24376114 576.13522488 -231.70364769 597.18112059 -215.09716797 614.48535156 C-214.27861328 615.36707031 -213.46005859 616.24878906 -212.61669922 617.15722656 C-187.71479982 643.19939019 -153.10524321 656.52899967 -117.40576172 657.48535156 C-80.82397546 657.85856709 -47.46610048 643.40544163 -21.09716797 618.48535156 C-19.788125 617.29039062 -19.788125 617.29039062 -18.45263672 616.07128906 C-6.05019659 604.32534434 3.10430767 590.09334037 9.90283203 574.48535156 C10.32387207 573.52145508 10.32387207 573.52145508 10.75341797 572.53808594 C24.04781278 541.37690141 25.02458834 504.19409215 12.90283203 472.48535156 C8.05904553 460.83081445 2.53258737 449.57778041 -5.09716797 439.48535156 C-5.75845703 438.60363281 -6.41974609 437.72191406 -7.10107422 436.81347656 C-30.21216949 407.3606627 -62.83092068 388.21308567 -100.09716797 383.48535156 C-117.63766005 382.5761604 -135.10946795 382.64932094 -152.09716797 387.48535156 Z " fill="#009FBA" transform="translate(924.09716796875,263.5146484375)"/>
</svg>
